<svg width="39" height="37" viewBox="0 0 39 37" fill="none" xmlns="http://www.w3.org/2000/svg">
<path d="M15.4436 21.2124V21.5978V35.5486C15.4437 35.6342 15.4677 35.7179 15.5127 35.7898C15.5577 35.8617 15.6215 35.9188 15.6964 35.9552L15.7037 35.9587L15.7037 35.9588C15.7593 35.9863 15.8204 36.0004 15.8821 36L15.8875 36C15.9874 35.9999 16.0849 35.9657 16.1638 35.9021L16.1649 35.9012L23.388 30.0975L15.4436 21.2124ZM15.4436 21.2124L15.1849 20.9267M15.4436 21.2124L15.1849 20.9267M15.1849 20.9267L1.79342 6.13468C1.79332 6.13458 1.79323 6.13447 1.79314 6.13437C1.39581 5.6945 1.13369 5.14778 1.03919 4.56036C0.944665 3.97278 1.02202 3.37038 1.26164 2.8264C1.50125 2.28247 1.89261 1.82076 2.38758 1.49681C2.88242 1.17295 3.45975 1.00053 4.04958 1M15.1849 20.9267L4.04958 1M23.5564 21.2124L23.8151 20.9267L37.2066 6.13468L23.5564 21.2124ZM23.5564 21.2124V21.5978M23.5564 21.2124V21.5978M23.5564 21.5978V29.7445C23.5563 29.8127 23.541 29.8799 23.5117 29.9411C23.4825 30.0022 23.4402 30.0555 23.3883 30.0973L23.5564 21.5978ZM4.04958 1H34.9504C35.5402 1.00053 36.1176 1.17295 36.6124 1.49681C37.1074 1.82075 37.4987 2.28247 37.7384 2.8264C37.978 3.37038 38.0553 3.97278 37.9608 4.56036C37.8663 5.14759 37.6044 5.69415 37.2072 6.13395L4.04958 1Z" stroke="#004A3F" stroke-width="2"/>
</svg>
